<svg width="1024" height="1024" viewBox="0 0 1024 1024" fill="none" xmlns="http://www.w3.org/2000/svg">
<path d="M142 497.429C142 482.28 129.016 470 113 470C96.9837 470 84 482.28 84 497.429V570.571C84 585.72 96.9837 598 113 598C129.016 598 142 585.72 142 570.571V497.429Z" fill="#3FA295"/>
<path d="M941 497.429C941 482.28 928.016 470 912 470C895.984 470 883 482.28 883 497.429V570.571C883 585.72 895.984 598 912 598C928.016 598 941 585.72 941 570.571V497.429Z" fill="#3FA295"/>
<path d="M132 508C132 798.963 258.833 962.63 512.5 999C766.167 962.63 893 798.963 893 508H132Z" fill="#3FA295" stroke="#1C352F" stroke-width="4"/>
<mask id="mask0_1_5728" style="mask-type:luminance" maskUnits="userSpaceOnUse" x="132" y="506" width="762" height="493">
<path d="M893.107 507.229C893.035 652.78 861.322 766.443 798.029 848.277C734.683 930.182 639.654 980.267 512.875 998.494C386.096 980.267 291.068 930.181 227.722 848.277C164.429 766.443 132.716 652.78 132.643 507.229H893.107Z" fill="white" stroke="white"/>
</mask>
<g mask="url(#mask0_1_5728)">
<path d="M245.961 533.772C255.168 533.772 262.594 540.915 262.594 549.681C262.594 558.448 255.168 565.591 245.961 565.591C236.755 565.59 229.328 558.447 229.328 549.681C229.328 540.915 236.754 533.772 245.961 533.772Z" fill="#1C352F" stroke="black"/>
<path d="M379.218 533.772C388.424 533.772 395.85 540.915 395.85 549.681C395.85 558.448 388.424 565.591 379.218 565.591C370.011 565.59 362.585 558.447 362.585 549.681C362.585 540.915 370.011 533.772 379.218 533.772Z" fill="#1C352F" stroke="black"/>
<path d="M512.474 533.772C521.681 533.772 529.107 540.915 529.107 549.681C529.107 558.448 521.681 565.591 512.474 565.591C503.268 565.59 495.841 558.447 495.841 549.681C495.841 540.915 503.267 533.772 512.474 533.772Z" fill="#1C352F" stroke="black"/>
<path d="M645.73 533.772C654.937 533.772 662.363 540.915 662.363 549.681C662.363 558.448 654.937 565.591 645.73 565.591C636.524 565.59 629.098 558.447 629.098 549.681C629.098 540.915 636.524 533.772 645.73 533.772Z" fill="#1C352F" stroke="black"/>
<path d="M778.987 533.772C788.194 533.772 795.62 540.915 795.62 549.681C795.62 558.448 788.194 565.591 778.987 565.591C769.78 565.59 762.354 558.447 762.354 549.681C762.354 540.915 769.78 533.772 778.987 533.772Z" fill="#1C352F" stroke="black"/>
<path d="M312.589 615.817C321.796 615.817 329.222 622.96 329.222 631.727C329.222 640.493 321.796 647.636 312.589 647.636C303.383 647.636 295.957 640.493 295.956 631.727C295.956 622.96 303.383 615.817 312.589 615.817Z" fill="#1C352F" stroke="black"/>
<path d="M445.846 615.817C455.053 615.817 462.479 622.96 462.479 631.727C462.479 640.493 455.052 647.636 445.846 647.636C436.639 647.636 429.213 640.493 429.213 631.727C429.213 622.96 436.639 615.817 445.846 615.817Z" fill="#1C352F" stroke="black"/>
<path d="M579.102 615.817C588.309 615.817 595.735 622.96 595.735 631.727C595.735 640.493 588.309 647.636 579.102 647.636C569.896 647.636 562.47 640.493 562.469 631.727C562.469 622.96 569.896 615.817 579.102 615.817Z" fill="#1C352F" stroke="black"/>
<path d="M712.359 615.817C721.566 615.817 728.992 622.96 728.992 631.727C728.992 640.493 721.565 647.636 712.359 647.636C703.152 647.636 695.726 640.493 695.726 631.727C695.726 622.96 703.152 615.817 712.359 615.817Z" fill="#1C352F" stroke="black"/>
<path d="M245.961 697.863C255.168 697.863 262.594 705.006 262.594 713.772C262.594 722.538 255.168 729.681 245.961 729.681C236.755 729.681 229.328 722.538 229.328 713.772C229.328 705.006 236.755 697.863 245.961 697.863Z" fill="#1C352F" stroke="black"/>
<path d="M379.218 697.863C388.424 697.863 395.85 705.006 395.85 713.772C395.85 722.538 388.424 729.681 379.218 729.681C370.011 729.681 362.585 722.538 362.585 713.772C362.585 705.006 370.011 697.863 379.218 697.863Z" fill="#1C352F" stroke="black"/>
<path d="M512.474 697.863C521.681 697.863 529.107 705.006 529.107 713.772C529.107 722.538 521.681 729.681 512.474 729.681C503.268 729.681 495.841 722.538 495.841 713.772C495.841 705.006 503.267 697.863 512.474 697.863Z" fill="#1C352F" stroke="black"/>
<path d="M645.73 697.863C654.937 697.863 662.363 705.006 662.363 713.772C662.363 722.538 654.937 729.681 645.73 729.681C636.524 729.681 629.098 722.538 629.098 713.772C629.098 705.006 636.524 697.863 645.73 697.863Z" fill="#1C352F" stroke="black"/>
<path d="M778.987 697.863C788.194 697.863 795.62 705.006 795.62 713.772C795.62 722.538 788.194 729.681 778.987 729.681C769.78 729.681 762.354 722.538 762.354 713.772C762.354 705.006 769.78 697.863 778.987 697.863Z" fill="#1C352F" stroke="black"/>
<path d="M312.589 779.908C321.796 779.908 329.222 787.051 329.222 795.817C329.222 804.583 321.796 811.726 312.589 811.726C303.383 811.726 295.957 804.583 295.956 795.817C295.956 787.051 303.383 779.908 312.589 779.908Z" fill="#1C352F" stroke="black"/>
<path d="M445.846 779.908C455.053 779.908 462.479 787.051 462.479 795.817C462.479 804.583 455.052 811.726 445.846 811.726C436.639 811.726 429.213 804.583 429.213 795.817C429.213 787.051 436.639 779.908 445.846 779.908Z" fill="#1C352F" stroke="black"/>
<path d="M579.102 779.908C588.309 779.908 595.735 787.051 595.735 795.817C595.735 804.583 588.309 811.726 579.102 811.726C569.896 811.726 562.47 804.583 562.469 795.817C562.469 787.051 569.896 779.908 579.102 779.908Z" fill="#1C352F" stroke="black"/>
<path d="M712.359 779.908C721.566 779.908 728.992 787.051 728.992 795.817C728.992 804.583 721.565 811.726 712.359 811.726C703.152 811.726 695.726 804.583 695.726 795.817C695.726 787.051 703.152 779.908 712.359 779.908Z" fill="#1C352F" stroke="black"/>
<path d="M245.961 861.953C255.168 861.953 262.594 869.096 262.594 877.862C262.594 886.629 255.168 893.772 245.961 893.772C236.755 893.771 229.328 886.628 229.328 877.862C229.328 869.096 236.755 861.953 245.961 861.953Z" fill="#1C352F" stroke="black"/>
<path d="M379.218 861.953C388.424 861.953 395.85 869.096 395.85 877.862C395.85 886.629 388.424 893.772 379.218 893.772C370.011 893.771 362.585 886.628 362.585 877.862C362.585 869.096 370.011 861.953 379.218 861.953Z" fill="#1C352F" stroke="black"/>
<path d="M512.474 861.953C521.681 861.953 529.107 869.096 529.107 877.862C529.107 886.629 521.681 893.772 512.474 893.772C503.268 893.771 495.841 886.628 495.841 877.862C495.841 869.096 503.267 861.953 512.474 861.953Z" fill="#1C352F" stroke="black"/>
<path d="M645.73 861.953C654.937 861.953 662.363 869.096 662.363 877.862C662.363 886.629 654.937 893.772 645.73 893.772C636.524 893.771 629.098 886.628 629.098 877.862C629.098 869.096 636.524 861.953 645.73 861.953Z" fill="#1C352F" stroke="black"/>
<path d="M778.987 861.953C788.194 861.953 795.62 869.096 795.62 877.862C795.62 886.629 788.194 893.772 778.987 893.772C769.78 893.771 762.354 886.628 762.354 877.862C762.354 869.096 769.78 861.953 778.987 861.953Z" fill="#1C352F" stroke="black"/>
<path d="M312.589 943.998C321.796 943.998 329.222 951.141 329.222 959.908C329.222 968.674 321.796 975.817 312.589 975.817C303.383 975.817 295.957 968.674 295.956 959.908C295.956 951.141 303.383 943.998 312.589 943.998Z" fill="#1C352F" stroke="black"/>
<path d="M445.846 943.998C455.053 943.998 462.479 951.141 462.479 959.908C462.479 968.674 455.052 975.817 445.846 975.817C436.639 975.817 429.213 968.674 429.213 959.908C429.213 951.141 436.639 943.998 445.846 943.998Z" fill="#1C352F" stroke="black"/>
<path d="M579.102 943.998C588.309 943.998 595.735 951.141 595.735 959.908C595.735 968.674 588.309 975.817 579.102 975.817C569.896 975.817 562.47 968.674 562.469 959.908C562.469 951.141 569.896 943.998 579.102 943.998Z" fill="#1C352F" stroke="black"/>
<path d="M712.359 943.998C721.566 943.998 728.992 951.141 728.992 959.908C728.992 968.674 721.565 975.817 712.359 975.817C703.152 975.817 695.726 968.674 695.726 959.908C695.726 951.141 703.152 943.998 712.359 943.998Z" fill="#1C352F" stroke="black"/>
</g>
<path d="M887.269 470H137.731C124.072 470 113 480.745 113 494C113 507.255 124.072 518 137.731 518H887.269C900.928 518 912 507.255 912 494C912 480.745 900.928 470 887.269 470Z" fill="#57C9B9" stroke="#1C352F" stroke-width="4"/>
<path d="M265.202 189.5C332.212 189.5 398.89 224.672 465.215 294.275L466.972 296.119L465.096 297.842C398.734 358.778 332.091 389.5 265.202 389.5C198.314 389.5 131.671 358.778 65.3096 297.842L63.4336 296.119L65.1904 294.275C131.516 224.672 198.193 189.5 265.202 189.5Z" fill="#E8F2F0" stroke="black" stroke-width="5"/>
<mask id="mask1_1_5728" style="mask-type:luminance" maskUnits="userSpaceOnUse" x="67" y="192" width="397" height="195">
<path d="M67.1162 295.773C199.212 157.667 331.309 157.667 463.405 295.773C331.309 416.615 199.212 416.615 67.1162 295.773Z" fill="white"/>
</mask>
<g mask="url(#mask1_1_5728)">
<path d="M265.282 387.478C310.985 387.478 348.035 346.032 348.035 294.905C348.035 243.778 310.985 202.331 265.282 202.331C219.579 202.331 182.53 243.778 182.53 294.905C182.53 346.032 219.579 387.478 265.282 387.478Z" fill="#3FA295"/>
<path d="M265.283 358.384C296.622 358.384 322.027 329.963 322.027 294.905C322.027 259.846 296.622 231.426 265.283 231.426C233.943 231.426 208.538 259.846 208.538 294.905C208.538 329.963 233.943 358.384 265.283 358.384Z" fill="#E8F2F0" stroke="#0B1A17" stroke-width="6"/>
<path d="M265.282 302.84C269.2 302.84 272.375 299.287 272.375 294.905C272.375 290.522 269.2 286.97 265.282 286.97C261.365 286.97 258.189 290.522 258.189 294.905C258.189 299.287 261.365 302.84 265.282 302.84Z" fill="#0B1A17"/>
<path d="M265.282 294.905V248.618" stroke="#0B1A17" stroke-width="6" stroke-linecap="round"/>
<path d="M265.282 294.905L296.019 314.742" stroke="#0B1A17" stroke-width="6" stroke-linecap="round"/>
</g>
<path d="M759.62 189.5C826.63 189.5 893.308 224.672 959.633 294.275L961.39 296.119L959.514 297.842C893.153 358.778 826.509 389.5 759.62 389.5C692.732 389.5 626.089 358.778 559.728 297.842L557.852 296.119L559.609 294.275C625.934 224.672 692.611 189.5 759.62 189.5Z" fill="#E8F2F0" stroke="black" stroke-width="5"/>
<mask id="mask2_1_5728" style="mask-type:luminance" maskUnits="userSpaceOnUse" x="561" y="192" width="397" height="195">
<path d="M561.534 295.773C693.631 157.667 825.727 157.667 957.823 295.773C825.727 416.615 693.631 416.615 561.534 295.773Z" fill="white"/>
</mask>
<g mask="url(#mask2_1_5728)">
<path d="M759.701 387.478C805.404 387.478 842.453 346.032 842.453 294.905C842.453 243.778 805.404 202.331 759.701 202.331C713.998 202.331 676.948 243.778 676.948 294.905C676.948 346.032 713.998 387.478 759.701 387.478Z" fill="#3FA295"/>
<path d="M759.701 358.384C791.04 358.384 816.445 329.963 816.445 294.905C816.445 259.846 791.04 231.426 759.701 231.426C728.362 231.426 702.956 259.846 702.956 294.905C702.956 329.963 728.362 358.384 759.701 358.384Z" fill="#E8F2F0" stroke="#0B1A17" stroke-width="6"/>
<path d="M759.701 302.84C763.618 302.84 766.794 299.287 766.794 294.905C766.794 290.522 763.618 286.97 759.701 286.97C755.783 286.97 752.607 290.522 752.607 294.905C752.607 299.287 755.783 302.84 759.701 302.84Z" fill="#0B1A17"/>
<path d="M759.701 294.905V248.618" stroke="#0B1A17" stroke-width="6" stroke-linecap="round"/>
<path d="M759.701 294.905L790.437 314.742" stroke="#0B1A17" stroke-width="6" stroke-linecap="round"/>
</g>
</svg>
