<svg width="22" height="22" viewBox="0 0 22 22" fill="none" xmlns="http://www.w3.org/2000/svg">
<g clip-path="url(#clip0_2_8)">
<path d="M11 15C13.2091 15 15 13.2091 15 11C15 8.79086 13.2091 7 11 7C8.79086 7 7 8.79086 7 11C7 13.2091 8.79086 15 11 15Z" stroke="black"/>
<path d="M10.9996 10.65C11.1928 10.65 11.35 10.8065 11.3502 10.9996C11.3502 11.1929 11.1929 11.3502 10.9996 11.3502C10.8065 11.35 10.65 11.1928 10.65 10.9996C10.6502 10.8066 10.8066 10.6502 10.9996 10.65Z" fill="black" stroke="black" stroke-width="0.5"/>
<path d="M12.9284 13.2781L12.2856 12.5121L11 10.98" stroke="black" stroke-width="0.8" stroke-linecap="round"/>
<path d="M11 11V9.99999V8" stroke="black" stroke-width="0.8" stroke-linecap="round"/>
<path d="M0 11C7.33333 4.33333 14.6667 4.33333 22 11C14.6667 17.6667 7.33333 17.6667 0 11Z" stroke="black" stroke-width="1.5" stroke-linecap="round" stroke-linejoin="round"/>
</g>
<rect x="0.005" y="0.005" width="21.99" height="21.99" stroke="black" stroke-width="0.01"/>
<defs>
<clipPath id="clip0_2_8">
<rect width="22" height="22" fill="white"/>
</clipPath>
</defs>
</svg>
